<svg
  xmlns="http://www.w3.org/2000/svg"
  width="150"
  height="150"
  viewBox="0 0 150 150"
  fill="#25c2a0"
>
  <!-- L -->
  <path
    d="M6.94-33.78L6.94-77.17L23.26-77.17L23.26-33.78Q23.60-25.57 23.95-22.91L23.95-22.91Q24.76-17.59 29.04-15.68Q33.32-13.77 44.08-13.77L44.08-13.77L59.82-13.77L59.82 0L42.35 0Q29.97 0 24.41-1.39L24.41-1.39Q11.69-5.09 8.21-17.59L8.21-17.59Q6.94-22.45 6.94-33.78L6.94-33.78Z"
    transform="translate(-2 113.5)"
  ></path>
  <!-- U -->
  <path
    d="M6.94-77.17L23.26-77.17L23.26-30.89Q23.26-25.34 24.18-22.27Q25.11-19.21 27.31-17.01L27.31-17.01Q32.16-12.26 40.84-12.26L40.84-12.26Q46.40-12.26 50.50-14.17Q54.61-16.08 56.23-19.32L56.23-19.32Q57.85-22.56 57.85-30.89L57.85-30.89L57.85-77.17L74.28-77.17L74.28-31.70Q74.28-22.68 72.37-16.83Q70.46-10.99 66.53-7.40L66.53-7.40Q57.39 0.58 40.61 0.58L40.61 0.58Q22.68 0.58 14.46-7.29L14.46-7.29Q10.18-11.34 8.56-16.37Q6.94-21.40 6.94-30.54L6.94-30.54L6.94-77.17Z"
    transform="translate(71 113.5)"
  ></path>
  <!-- 
        宽高 150
        左上角 -7 77
        U 宽 67 高 77 线条宽 16
        左右空白剩余 16 分配 5 6 5
        上下空白剩余 73 上分配 36.5
        L(-7+5 77+36.5) U(-7+5+67+6 77+36.5)
       -->
</svg>
